<?xml version="1.0" encoding="UTF-8"?>
<svg id="Layer_2" data-name="Layer 2" xmlns="http://www.w3.org/2000/svg" viewBox="0 0 45.38 46.42">
  <defs>
    <style>
      .cls-1 {
        fill: #5fb643;
      }
    </style>
  </defs>
  <g id="Layer_1-2" data-name="Layer 1">
    <path class="cls-1" d="M44.21,24.05c-.19-.55-.19-1.14,0-1.68l1.03-2.92c.32-.92.09-1.95-.6-2.64l-2.19-2.18c-.41-.41-.67-.94-.73-1.52l-.34-3.07c-.11-.97-.76-1.79-1.69-2.12l-2.92-1.02c-.55-.19-1.01-.56-1.32-1.05l-1.64-2.62c-.52-.83-1.47-1.29-2.44-1.17l-3.07.35c-.57.07-1.15-.07-1.64-.37l-2.62-1.65c-.83-.52-1.88-.52-2.7,0l-2.62,1.65c-.49.31-1.07.44-1.64.37l-3.07-.35c-.97-.11-1.92.34-2.44,1.17l-1.64,2.62c-.31.49-.77.86-1.32,1.05l-2.92,1.02c-.92.32-1.58,1.14-1.69,2.12l-.34,3.07c-.06.57-.32,1.11-.73,1.52l-2.19,2.18c-.69.69-.93,1.72-.6,2.64l1.03,2.92c.19.55.19,1.14,0,1.68l-1.03,2.92c-.32.92-.09,1.95.6,2.64l2.19,2.18c.41.41.67.94.73,1.52l.34,3.07c.11.97.76,1.79,1.69,2.12l2.92,1.02c.55.19,1.01.56,1.32,1.05l1.64,2.62c.52.83,1.47,1.29,2.44,1.17l3.07-.35c.57-.07,1.15.07,1.64.37l2.62,1.65c.83.52,1.88.52,2.7,0l2.62-1.65c.49-.31,1.07-.44,1.64-.37l3.07.35c.97.11,1.92-.34,2.44-1.17l1.64-2.62c.31-.49.77-.86,1.32-1.05l2.92-1.02c.92-.32,1.58-1.14,1.69-2.12l.34-3.07c.06-.57.32-1.11.73-1.52l2.19-2.18c.69-.69.93-1.72.6-2.64l-1.03-2.92ZM18.59,32.67l-.08.08-.09-.09-8.01-8.01,2.53-2.53,5.5,5.5,13.87-13.87,2.61,2.61-16.31,16.31Z"/>
  </g>
</svg>