<?xml version="1.0" encoding="UTF-8"?>
<svg id="Layer_2" data-name="Layer 2" xmlns="http://www.w3.org/2000/svg" viewBox="0 0 50.15 51.29">
  <defs>
    <style>
      .cls-1 {
        fill: #fff;
      }

      .cls-2 {
        fill: #a20000;
      }
    </style>
  </defs>
  <g id="Layer_1-2" data-name="Layer 1">
    <g>
      <path class="cls-2" d="M48.85,26.58c-.21-.6-.21-1.26,0-1.86l1.14-3.22c.36-1.02.1-2.15-.67-2.91l-2.42-2.41c-.45-.45-.74-1.04-.81-1.68l-.38-3.4c-.12-1.07-.84-1.98-1.86-2.34l-3.23-1.12c-.6-.21-1.12-.62-1.45-1.16l-1.81-2.9c-.57-.92-1.62-1.42-2.69-1.3l-3.4.39c-.63.07-1.28-.07-1.81-.41l-2.89-1.83c-.91-.57-2.08-.57-2.99,0l-2.89,1.83c-.54.34-1.18.49-1.81.41l-3.4-.39c-1.07-.12-2.12.38-2.69,1.3l-1.81,2.9c-.34.54-.85.95-1.45,1.16l-3.23,1.12c-1.02.35-1.74,1.26-1.86,2.34l-.38,3.4c-.07.63-.36,1.23-.81,1.68l-2.42,2.41c-.76.76-1.02,1.9-.67,2.91l1.13,3.22c.21.6.21,1.26,0,1.86l-1.13,3.22c-.36,1.02-.1,2.15.67,2.91l2.42,2.41c.45.45.74,1.04.81,1.68l.38,3.4c.12,1.07.84,1.98,1.86,2.34l3.23,1.12c.6.21,1.12.62,1.45,1.16l1.81,2.9c.57.92,1.62,1.42,2.69,1.3l3.4-.39c.63-.07,1.28.07,1.81.41l2.89,1.83c.91.57,2.08.57,2.99,0l2.89-1.83c.54-.34,1.18-.49,1.81-.41l3.4.39c1.07.12,2.12-.38,2.69-1.3l1.81-2.9c.34-.54.85-.95,1.45-1.16l3.23-1.12c1.02-.35,1.74-1.26,1.86-2.34l.38-3.4c.07-.63.36-1.23.81-1.68l2.42-2.41c.76-.76,1.02-1.9.67-2.91l-1.14-3.22Z"/>
      <g>
        <g>
          <path class="cls-1" d="M27.01,25.41c-3.59,0-6.51-2.92-6.51-6.51s2.92-6.51,6.51-6.51,6.51,2.92,6.51,6.51-2.92,6.51-6.51,6.51ZM27.01,13.19c-3.15,0-5.72,2.57-5.72,5.72s2.57,5.72,5.72,5.72,5.72-2.57,5.72-5.72-2.57-5.72-5.72-5.72Z"/>
          <path class="cls-1" d="M26.58,21.07c-.11,0-.21-.04-.28-.12l-1.92-1.94c-.15-.15-.15-.4,0-.56.16-.15.4-.15.56,0l1.6,1.62,2.51-3.19c.13-.17.38-.2.55-.07.17.13.2.38.07.55l-2.79,3.55c-.07.09-.17.14-.29.15,0,0-.01,0-.02,0Z"/>
        </g>
        <path class="cls-1" d="M30.35,33.54h-6.31c-.22,0-.39-.18-.39-.39s.18-.39.39-.39h6.31c.73,0,1.32-.59,1.32-1.32s-.59-1.32-1.32-1.32h-4.54c-.08,0-.16-.03-.23-.07-.79-.57-1.72-.89-2.7-.93l-.58-.02c-1.31-.06-2.57.4-3.55,1.27l-2.31,2.08c-.16.15-.41.13-.56-.03-.15-.16-.13-.41.03-.56l2.31-2.08c1.13-1.02,2.59-1.54,4.11-1.48l.58.02c1.08.05,2.12.39,3.02,1h4.42c1.16,0,2.11.95,2.11,2.11s-.95,2.11-2.11,2.11Z"/>
        <path class="cls-1" d="M19.58,38.46c-.2,0-.37-.15-.39-.36-.02-.22.14-.41.35-.43l11.9-1.19c.63-.06,1.24-.29,1.76-.65l3.1-2.33s.01-.01.02-.01c.25-.16.45-.39.6-.65l2.25-4.42c.06-.12.05-.27-.03-.39-.08-.12-.2-.19-.35-.19-.68,0-1.34.28-1.82.76,0,0,0,0,0,0l-1.78,1.71s-.04.04-.07.05l-2.9,1.79c-.19.11-.43.06-.54-.13s-.06-.43.13-.54l2.86-1.77,1.75-1.68c.62-.63,1.49-1,2.38-1,.42,0,.8.21,1.02.56.22.35.25.79.07,1.16l-2.26,4.43s0,0,0,0c-.2.37-.5.69-.85.93l-3.09,2.33s0,0-.01,0c-.63.44-1.37.71-2.13.79l-11.9,1.19s-.03,0-.04,0Z"/>
        <path class="cls-1" d="M17.14,42.7c-.1,0-.19-.03-.27-.11-.16-.15-.17-.4-.02-.56l2.65-2.85-4.86-8.51-3.92,2c-.19.1-.43.02-.53-.17-.1-.19-.02-.43.17-.53l4.25-2.17c.19-.1.42-.03.52.16l5.19,9.09c.09.15.06.34-.05.46l-2.84,3.06c-.08.08-.18.13-.29.13Z"/>
        <g>
          <path class="cls-1" d="M37.53,14.84h-2.33c-.22,0-.39-.18-.39-.39s.18-.39.39-.39h2.33c.22,0,.39.18.39.39s-.18.39-.39.39Z"/>
          <path class="cls-1" d="M31.73,11.53c-.22,0-.39-.18-.39-.39v-2.33c0-.22.18-.39.39-.39s.39.18.39.39v2.33c0,.22-.18.39-.39.39Z"/>
          <path class="cls-1" d="M34.28,12.33c-.1,0-.2-.04-.28-.12-.15-.15-.15-.4,0-.56l1.61-1.61c.15-.15.4-.15.56,0,.15.15.15.4,0,.56l-1.61,1.61c-.08.08-.18.12-.28.12Z"/>
        </g>
      </g>
    </g>
  </g>
</svg>