<?xml version="1.0" encoding="UTF-8"?>
<svg id="Layer_2" data-name="Layer 2" xmlns="http://www.w3.org/2000/svg" viewBox="0 0 247.16 50.95">
  <defs>
    <style>
      .cls-1 {
        fill: #fff;
      }
    </style>
  </defs>
  <g id="Layer_1-2" data-name="Layer 1">
    <g id="_그룹_5767" data-name="그룹 5767">
      <g id="_그룹_6156" data-name="그룹 6156">
        <path id="_패스_25351" data-name="패스 25351" class="cls-1" d="M80.56,40.21v7.89l-7.58-7.89h-2.59v10.63h2.22v-7.89c1.27,1.32,7.58,7.89,7.58,7.89h2.59v-10.63h-2.21Z"/>
        <path id="_패스_25352" data-name="패스 25352" class="cls-1" d="M90.58,47.1h4.95v.47c.05.4-.09.79-.36,1.08-.42.25-.9.36-1.39.32h-5c-.54.06-1.09-.08-1.53-.4-.29-.41-.42-.92-.38-1.42v-3.41c-.05-.47.09-.94.4-1.3.44-.31.97-.45,1.51-.39h3.85c.85-.09,1.71,0,2.53.28.25.14.38.57.38,1.22v.45h2.11v-.81c0-1.42-.71-3.11-4.12-3.11h-4.84c-1.09-.1-2.18.23-3.03.91-.72.82-1.07,1.9-.99,2.99v2.87c-.11,1.12.23,2.23.94,3.1.84.71,1.93,1.05,3.02.95h5.32c1.07.11,2.13-.23,2.93-.93.64-.83.95-1.87.87-2.92v-1.94h-7.17v1.97Z"/>
        <path id="_패스_25353" data-name="패스 25353" class="cls-1" d="M99.82,40.21v10.63h2.21v-10.63h-2.21Z"/>
        <path id="_패스_25354" data-name="패스 25354" class="cls-1" d="M114.44,40.21v7.89l-7.58-7.89h-2.6v10.63h2.21v-7.89l7.58,7.89h2.59v-10.63h-2.22,0Z"/>
        <path id="_패스_25355" data-name="패스 25355" class="cls-1" d="M121.03,46.36h7.82v-1.96h-7.82v-2.23h8.15v-1.96h-10.37v10.63h10.42v-1.96h-8.2v-2.52Z"/>
        <path id="_패스_25356" data-name="패스 25356" class="cls-1" d="M133.21,46.36h7.82v-1.96h-7.82v-2.23h8.15v-1.96h-10.37v10.63h10.42v-1.96h-8.21v-2.52Z"/>
        <path id="_패스_25357" data-name="패스 25357" class="cls-1" d="M154.2,40.89c-.83-.53-1.81-.77-2.79-.68h-8.31v10.63h2.21v-3.86h5.93c.86,0,1.18.16,1.28.25.21.29.31.65.26,1v2.61h2.13v-2.9c.03-.72-.29-1.4-.87-1.82.16-.07.3-.16.43-.26.42-.46.62-1.08.56-1.69v-.79c.1-.91-.21-1.82-.85-2.47M152.84,44.03c0,.57-.22.69-.31.74-.43.19-.91.27-1.38.24h-5.83v-2.84h5.63c.54-.05,1.09.03,1.6.23.2.11.29.36.29.77v.87Z"/>
        <path id="_패스_25358" data-name="패스 25358" class="cls-1" d="M157.07,40.21v10.63h2.21v-10.63h-2.21,0Z"/>
        <path id="_패스_25359" data-name="패스 25359" class="cls-1" d="M171.7,40.21v7.89l-7.58-7.89h-2.59v10.63h2.21v-7.89l7.58,7.89h2.59v-10.63h-2.21Z"/>
        <path id="_패스_25360" data-name="패스 25360" class="cls-1" d="M181.71,47.1h4.95v.47c.05.4-.09.79-.37,1.08-.42.25-.9.36-1.38.32h-5.01c-.54.06-1.09-.08-1.53-.39-.29-.41-.43-.92-.38-1.42v-3.41c-.05-.47.09-.94.4-1.3.44-.31.97-.45,1.51-.39h3.86c.85-.09,1.72.01,2.53.28.24.14.37.57.37,1.22v.45h2.11v-.81c0-1.42-.71-3.11-4.13-3.11h-4.83c-1.09-.1-2.18.23-3.03.91-.72.82-1.07,1.9-.99,2.99v2.87c-.11,1.12.23,2.23.95,3.1.84.71,1.93,1.05,3.02.95h5.32c1.07.11,2.13-.23,2.93-.93.64-.83.95-1.87.87-2.92v-1.94h-7.17v1.97Z"/>
        <path id="_패스_25361" data-name="패스 25361" class="cls-1" d="M42.07,0h-13.62v26.35c0,1.5-1.22,2.72-2.72,2.72h-9.37c-1.5,0-2.72-1.22-2.73-2.72v-10.02H0v9.79c0,4.81,3.89,8.7,8.7,8.71h24.66c4.81,0,8.71-3.9,8.71-8.71V1.09h0V0Z"/>
        <path id="_패스_25362" data-name="패스 25362" class="cls-1" d="M246.07,0h-32.28c-4.81,0-8.71,3.9-8.71,8.71h0v17.41c0,4.81,3.9,8.71,8.71,8.71h24.66c4.81,0,8.7-3.9,8.7-8.71v-9.86h-13.64v10.07c0,1.51-1.21,2.73-2.72,2.74h-9.37c-1.5,0-2.72-1.22-2.72-2.72V8.47c0-1.5,1.23-2.71,2.73-2.71h24.63s.04,0,.06-.01h1.02V0h-1.08Z"/>
        <path id="_패스_25363" data-name="패스 25363" class="cls-1" d="M194.29,0h-33.37v26.35c0,1.5-1.22,2.72-2.72,2.72h-9.37c-1.5,0-2.72-1.22-2.73-2.72V5.94h.01V0h-49.09c-4.81,0-8.7,3.9-8.7,8.71v3.61c0,.62.07,1.23.2,1.84.97,3.85,4.54,6.47,8.5,6.22h17.17c1.38.08,2.48,1.17,2.57,2.55v3.59c-.05.77-.41,1.48-1.01,1.96-.43.35-.97.56-1.53.59h-28.01V10.91h0V0h-13.62v26.35c0,1.5-1.22,2.72-2.72,2.72h-9.37c-1.5,0-2.72-1.22-2.72-2.72V1.09s-.01-.05-.01-.07V0h-13.62v26.11c0,4.81,3.9,8.71,8.71,8.71h68.82c4.81,0,8.71-3.9,8.71-8.71v-3.62c-.02-4.49-3.68-8.11-8.17-8.08-.18,0-.36,0-.55.02h-17.16c-1.38-.07-2.49-1.17-2.57-2.55v-3.59c.04-.77.41-1.48,1.01-1.96.43-.35.97-.56,1.53-.59h28v20.36c0,4.81,3.9,8.71,8.71,8.71h28s5.35.01,5.35.01v-1.02s.02-.05.02-.08V8.47c0-1.5,1.22-2.71,2.72-2.71h9.37c1.5,0,2.72,1.21,2.72,2.71v26.36h5.35s2.92-.01,2.92-.01h0s5.35.01,5.35.01V8.71C203,3.9,199.1,0,194.29,0"/>
      </g>
      <path id="_패스_25350" data-name="패스 25350" class="cls-1" d="M69.21,38.73h-11.29v12.09h11.85v-2.23h-9.34v-2.86h8.9v-2.23h-8.9v-2.55h9.28v-2.23h-.5Z"/>
    </g>
  </g>
</svg>